Coordinates
version=1
nRows=8
nColumns=40
inDegrees=yes

Units are S.I. units (second, meters, Newtons, ...)
Angles are in degrees.

endheader
time	pelvis_tilt	pelvis_list	pelvis_rotation	pelvis_tx	pelvis_ty	pelvis_tz	hip_flexion_r	hip_adduction_r	hip_rotation_r	knee_angle_r	knee_angle_r_beta	ankle_angle_r	subtalar_angle_r	mtp_angle_r	hip_flexion_l	hip_adduction_l	hip_rotation_l	knee_angle_l	knee_angle_l_beta	ankle_angle_l	subtalar_angle_l	mtp_angle_l	lumbar_extension	lumbar_bending	lumbar_rotation	arm_flex_r	arm_add_r	arm_rot_r	elbow_flex_r	pro_sup_r	wrist_flex_r	wrist_dev_r	arm_flex_l	arm_add_l	arm_rot_l	elbow_flex_l	pro_sup_l	wrist_flex_l	wrist_dev_l
      8.89000000	     -5.73236106	     -4.56811601	      4.35913162	      0.93813048	      0.92331461	      0.43394860	      4.42521895	     -2.86985537	    -15.46716875	     31.73828766	     31.73828766	     13.42858818	     -1.14042317	     -9.86301622	     27.05662885	     -4.64691079	     -7.92011411	     20.57090139	     20.57090139	      3.59733968	    -11.46619018	      0.56731286	     -6.70871393	      4.87598148	      4.60596131	     19.40664234	    -18.30946684	    -13.28187946	     91.91369221	     44.50402513	      0.00000000	      0.00000000	     -7.91092967	     -9.04713532	      0.78015617	     29.51843150	     45.75520549	      0.00000000	      0.00000000
      8.90285714	     -5.85079492	     -4.49944133	      4.20557798	      0.93799660	      0.92444043	      0.43160708	      6.54425117	     -3.64536628	    -14.75266679	     36.02814181	     36.02814181	     11.80761582	     -3.17173638	    -10.53246108	     26.41915944	     -4.61613935	     -8.61418213	     20.31081039	     20.31081039	      4.25343893	    -10.49317274	     -0.08782948	     -6.63459110	      4.54510438	      4.51501056	     17.72564743	    -18.39318088	    -13.11293131	     90.37689528	     44.54996856	      0.00000000	      0.00000000	     -6.87468649	     -9.28981179	      0.65179947	     30.03670050	     45.79073893	      0.00000000	      0.00000000
      8.91571429	     -5.85936132	     -4.37490866	      4.09959019	      0.93765226	      0.92552537	      0.42938557	      8.69844472	     -4.45528899	    -14.12398135	     40.44685423	     40.44685423	     10.13422724	     -5.11915606	    -10.84912204	     25.68879252	     -4.51658254	     -9.27334868	     20.07154636	     20.07154636	      4.86832620	     -9.56278472	     -0.71999477	     -6.77536599	      4.15518139	      4.26715561	     16.07007816	    -18.30566076	    -12.85988486	     88.95119250	     44.58713607	      0.00000000	      0.00000000	     -5.72246716	     -9.59539145	      0.53769861	     30.58187194	     45.82540039	      0.00000000	      0.00000000
      8.92857143	     -5.95902525	     -4.33669251	      3.93160447	      0.93717037	      0.92630470	      0.42758998	     11.10882499	     -5.00757422	    -13.23747798	     44.88478993	     44.88478993	      8.46985870	     -7.25546407	    -10.78292006	     25.04875605	     -4.55947835	    -10.05420218	     19.79636800	     19.79636800	      5.45276921	     -8.42309466	     -1.49517359	     -6.77730946	      3.82528436	      4.15032526	     14.32379924	    -18.30980960	    -12.57112341	     87.18517569	     44.63529087	      0.00000000	      0.00000000	     -4.63147617	     -9.94603308	      0.40422261	     31.17537054	     45.86107815	      0.00000000	      0.00000000
      8.94142857	     -5.91367144	     -4.39598094	      3.83019569	      0.93662779	      0.92706335	      0.42609578	     13.42232344	     -5.28433119	    -12.34137737	     49.21389822	     49.21389822	      7.08788776	     -9.38580375	     -9.76217036	     24.38687607	     -4.80174212	    -11.05361044	     19.73665866	     19.73665866	      6.00688017	     -6.81751144	     -2.79421136	     -6.89850499	      3.58033918	      3.99696555	     12.75617492	    -18.29476295	    -12.12533754	     84.63909575	     44.71376043	      0.00000000	      0.00000000	     -3.42341872	    -10.34274206	      0.27015394	     31.92614884	     45.89706385	      0.00000000	      0.00000000
      8.95428571	     -5.94115002	     -4.21388656	      3.75711776	      0.93586747	      0.92761496	      0.42442976	     15.86212977	     -5.92571431	    -11.68655390	     53.47515731	     53.47515731	      5.89128849	    -10.69632648	     -9.13556421	     23.67646558	     -4.60716843	    -11.58431841	     19.41225481	     19.41225481	      6.44397905	     -6.08713367	     -3.33422698	     -7.01447416	      3.11934315	      3.59450988	     11.07078041	    -18.04243848	    -11.65451135	     83.07407865	     44.74904657	      0.00000000	      0.00000000	     -2.24803016	    -10.78015579	      0.17806748	     32.46984613	     45.92711218	      0.00000000	      0.00000000
      8.96714286	     -5.88005905	     -4.04785925	      3.74221386	      0.93501587	      0.92821679	      0.42285936	     18.18267466	     -6.43718863	    -11.05212021	     57.43109235	     57.43109235	      4.89629027	    -11.90845796	     -8.38435539	     22.94588826	     -4.42491440	    -12.01863042	     19.19142087	     19.19142087	      6.84901632	     -5.43906193	     -3.85353338	     -7.25256130	      2.67600470	      3.25911935	      9.28288089	    -17.80875627	    -11.16202621	     81.30448269	     44.78821900	      0.00000000	      0.00000000	     -0.88493677	    -11.25732583	      0.10023944	     33.03130910	     45.95786687	      0.00000000	      0.00000000
      8.98000000	     -5.79203547	     -4.06266488	      3.76376262	      0.93418118	      0.92882718	      0.42145232	     20.56267582	     -6.66280326	    -10.47086066	     61.35128950	     61.35128950	      5.73039434	    -11.97115854	     -2.95744176	     22.18942676	     -4.48408612	    -12.59719878	     18.91610064	     18.91610064	      7.00739109	     -4.36171667	     -5.47580374	     -7.36271760	      2.43221586	      2.49754178	      8.60270667	    -17.47319818	     -9.89594017	     76.83473541	     44.92525953	      0.00000000	      0.00000000	      0.36622426	    -11.79972136	      0.44369764	     33.26910257	     45.92525869	      0.00000000	      0.00000000
